<svg xmlns="http://www.w3.org/2000/svg" viewBox="0 0 615.28 297.18"><defs><style>.cls-1{fill:#072141;opacity:0.95;}</style></defs><g id="Livello_2" data-name="Livello 2"><g id="Livello_1-2" data-name="Livello 1"><path class="cls-1" d="M424.32,297.18H250.84c-8.71,0-15.13-4.75-17.05-12.54-2.81-11.37,4.91-21.33,16.59-21.35,10.5,0,21,0,31.5,0,7.39,0,14.25-6.09,15.54-13.73s-3.2-16.15-10.08-18.49a13.54,13.54,0,0,0-4.19-.34q-131.37,0-262.73,0c-6.07,0-11.19-1.91-14.68-7-3.91-5.71-4.16-11.95-1.14-18s8.28-8.9,15.05-8.9c52.83,0,105.66-.22,158.48.19,9.65.07,16.56-9.31,16.11-17.15s-7.28-16.26-16.47-15.76a74.72,74.72,0,0,1-12-.23c-8.64-.92-14.58-8.5-14.14-17.63s7.2-15.89,16-15.93q27.5-.12,55,0a9.94,9.94,0,0,0,6.81-2.53,16.77,16.77,0,0,0,.33-25.66,7.71,7.71,0,0,0-4.63-1.75q-64.75-.14-129.49,0a18.29,18.29,0,0,1-10.44-2.79c-5.76-3.83-8.45-10.83-6.94-18A16.05,16.05,0,0,1,91.85,66.61a29.08,29.08,0,0,1,4.48-.31q169.49,0,339,0c9.22,0,15.63,4.34,17.76,12,3.24,11.64-4.53,22-16.58,22q-73.87,0-147.74,0a7.36,7.36,0,0,0-5.52,2.28,16.79,16.79,0,0,0,1.91,25.91,10.42,10.42,0,0,0,5.5,1.76q86.63.13,173.24,0c5.22,0,9.77,1.15,13.54,5.07a17.86,17.86,0,0,1,3.42,18.59,15.82,15.82,0,0,1-14.74,10.06l-132.45.18c-8.25,0-14.44,4.8-16.37,12.6a16.88,16.88,0,0,0,9.82,19.49,9.93,9.93,0,0,0,3.65.55q57.74,0,115.49,0c6.85,0,12.19,2.93,15.12,9.15s2.54,12.68-1.73,18.41c-3.2,4.28-7.71,6.24-13,6.33-4.58.07-9.17,0-13.75,0A14.9,14.9,0,0,0,418,243.11c-2.42,12.16,8.09,20.37,16.73,20.32,54.49-.3,109-.15,163.48-.14,8.38,0,15.06,5.25,16.65,13,2.36,11.44-5.32,20.88-17,20.88Q511.07,297.2,424.32,297.18Z"/><path class="cls-1" d="M275.52,33.85q-51.61,0-103.23,0c-8.44,0-14.95-5.15-16.6-13C153.35,9.63,160.9,0,172.29,0Q275.4,0,378.49,0c9.28,0,15.89,6.17,16.73,15.18s-4.48,16.57-13,18.32a23.18,23.18,0,0,1-4.72.3Q326.51,33.86,275.52,33.85Z"/><path class="cls-1" d="M524.29,163.39c-4.41,0-8.83.06-13.24,0-9.4-.14-16.15-7.1-16.21-16.65-.07-9.75,6.52-16.92,16-17.08q13.6-.24,27.23,0c9.57.18,16.06,7.39,16,17.38a16.07,16.07,0,0,1-16.26,16.35C533.28,163.44,528.79,163.39,524.29,163.39Z"/><path class="cls-1" d="M29.27,98.2c-4.25,0-8.5.06-12.75,0C7,98,0,90.77,0,81.13A16.47,16.47,0,0,1,16.72,64.3q12.5-.08,25,0a16.48,16.48,0,0,1,16.77,17A16.54,16.54,0,0,1,41.76,98.19C37.59,98.24,33.43,98.2,29.27,98.2Z"/><path class="cls-1" d="M435.34.72A16.14,16.14,0,0,1,451.7,17,16.29,16.29,0,1,1,435.34.72Z"/></g></g></svg>