<svg xmlns="http://www.w3.org/2000/svg" viewBox="0 0 615.28 297.18"><defs><style>.cls-1{fill:#fff;fill-opacity:0.58;opacity:0.3;}</style></defs><g id="Livello_2" data-name="Livello 2"><g id="Livello_1-2" data-name="Livello 1"><path class="cls-1" d="M424.32,0H250.84c-8.71,0-15.13,4.74-17.05,12.53C231,23.91,238.7,33.87,250.38,33.9c10.5,0,21,0,31.5,0,7.39,0,14.25,6.1,15.54,13.73s-3.2,16.16-10.08,18.49a13.25,13.25,0,0,1-4.19.35q-131.37,0-262.73,0c-6.07,0-11.19,1.92-14.68,7-3.91,5.71-4.16,12-1.14,18s8.28,8.9,15.05,8.9c52.83,0,105.66.22,158.48-.19,9.65-.07,16.56,9.31,16.11,17.15s-7.28,16.26-16.47,15.76a77.12,77.12,0,0,0-12,.23c-8.64.92-14.58,8.51-14.14,17.63s7.2,15.9,16,15.93q27.5.12,55,0a10,10,0,0,1,6.81,2.53,16.77,16.77,0,0,1,.33,25.66,7.64,7.64,0,0,1-4.63,1.75q-64.75.13-129.49.06a18.21,18.21,0,0,0-10.44,2.78c-5.76,3.83-8.45,10.83-6.94,18a16.05,16.05,0,0,0,13.55,12.91,27.88,27.88,0,0,0,4.48.31q169.49,0,339,0c9.22,0,15.63-4.34,17.76-12,3.24-11.64-4.53-22-16.58-22q-73.87,0-147.74,0a7.36,7.36,0,0,1-5.52-2.28,16.79,16.79,0,0,1,1.91-25.91,10.32,10.32,0,0,1,5.5-1.75q86.63-.13,173.24,0c5.22,0,9.77-1.15,13.54-5.07a17.86,17.86,0,0,0,3.42-18.59,15.82,15.82,0,0,0-14.74-10.06q-66.22-.11-132.45-.18c-8.25,0-14.44-4.8-16.37-12.6A16.87,16.87,0,0,1,327.09,101a9.73,9.73,0,0,1,3.65-.56q57.74,0,115.49,0c6.85,0,12.19-2.93,15.12-9.15s2.54-12.68-1.73-18.41c-3.2-4.29-7.71-6.25-13-6.33-4.58-.08-9.17,0-13.75,0A14.9,14.9,0,0,1,418,54.07c-2.42-12.16,8.09-20.37,16.73-20.32,54.49.3,109,.15,163.48.15,8.38,0,15.06-5.26,16.65-13C617.21,9.45,609.53,0,597.81,0Q511.07,0,424.32,0Z"/><path class="cls-1" d="M275.52,263.34H172.29c-8.44,0-14.95,5.15-16.6,13-2.34,11.17,5.21,20.76,16.6,20.77q103.11.06,206.2,0c9.28,0,15.89-6.16,16.73-15.18s-4.48-16.57-13-18.32a23.18,23.18,0,0,0-4.72-.3Q326.51,263.32,275.52,263.34Z"/><path class="cls-1" d="M524.29,133.79c-4.41,0-8.83,0-13.24,0-9.4.14-16.15,7.1-16.21,16.66-.07,9.74,6.52,16.91,16,17.07q13.6.24,27.23,0c9.57-.18,16.06-7.38,16-17.38a16.07,16.07,0,0,0-16.26-16.35C533.28,133.74,528.79,133.79,524.29,133.79Z"/><path class="cls-1" d="M29.27,199c-4.25,0-8.5-.06-12.75,0C7,199.16,0,206.41,0,216.06a16.47,16.47,0,0,0,16.72,16.82q12.5.08,25,0a17,17,0,0,0,0-33.9C37.59,198.94,33.43,199,29.27,199Z"/></g></g></svg>