<svg xmlns="http://www.w3.org/2000/svg" viewBox="0 0 638.72 299.79"><defs><style>.cls-1{fill:#072141;opacity:0.95;}</style></defs><g id="Livello_2" data-name="Livello 2"><g id="Livello_1-2" data-name="Livello 1"><path class="cls-1" d="M341.88,299.78H153.63c-2.49,0-5,0-7.48-.1-9.06-.16-15.82-7.36-15.83-16.82S137.14,266,146.13,266c52.84,0,105.67-.13,158.5.06a16.7,16.7,0,0,0,6.24-32.1,13.3,13.3,0,0,0-4.86-.79q-41.5-.08-83,0c-8.21,0-14.49-4.78-16.41-12.33-2.88-11.37,4.77-21.35,16.47-21.45,4,0,8,0,12,0,6.81,0,11.73-3.32,14.24-9.62A16.72,16.72,0,0,0,242.1,169a14.64,14.64,0,0,0-6.82-1.85q-108.37-.15-216.75-.06c-6.08,0-11.42-1.61-15.1-6.73C-.68,154.63-1,148.32,2,142.12s8.34-9.06,15.18-9.06q63.51,0,127,0a16.24,16.24,0,0,0,15.72-13.45c1.41-8-2.87-16.08-10-18.72a9,9,0,0,0-2.93-.41c-4.17,0-8.33,0-12.5,0-10.16-.07-17.7-7.39-17.64-17.12.06-9.57,7.63-16.78,17.68-16.78,55.41,0,110.83-.14,166.25.16,7.9,0,14.37-7,15.49-12.92a17.26,17.26,0,0,0-7.36-17.62,14.77,14.77,0,0,0-8.53-2.28q-34,.09-68,0c-8.58,0-15.17-5-17.18-12.87a16.89,16.89,0,0,1,15.92-21c2.42-.06,4.84,0,7.25,0Q355.7,0,473.07,0c5.56,0,10.4,1.46,14.09,5.7,4.63,5.34,5.65,11.5,2.87,17.94-2.92,6.79-8.44,10.19-15.78,10.25-13.42.11-26.83,0-40.25,0H368.5c-8.13,0-14.6,5.13-16.16,12.79a16.91,16.91,0,0,0,9.93,19.22,8.84,8.84,0,0,0,3.15.58c3.58.07,7.17,0,10.75,0,9.85,0,17.34,7.25,17.47,16.79s-7.5,17.07-17.45,17.09q-34.12.07-68.24,0c-6.84,0-13.67.09-20.5,0s-11.62,3.32-14.54,9.17a15.94,15.94,0,0,0,1.58,17.46,13.76,13.76,0,0,0,11.88,6q81-.19,162-.08c8.9,0,15.39,5,17.11,13.06,2.31,10.85-4.7,20.17-15.75,20.9-.92.06-1.84,0-2.75,0q-71.25,0-142.5-.05c-7.34,0-12.24,3.43-15.11,9.78-2.95,6.54-1.73,12.73,2.95,18.13a12.42,12.42,0,0,0,10.07,4.52c26.83-.13,53.67-.08,80.5-.05,8.5,0,14.8,4.88,16.61,12.69,2.63,11.35-5,21-16.64,21.08a83.9,83.9,0,0,1-9.25-.05c-7.54-.78-14.3,6-15.66,13.07a16.43,16.43,0,0,0,7.56,17.43,16.82,16.82,0,0,0,8,2.27q81.75.19,163.5.07c5.61,0,10.38,1.64,13.84,6.1,4.58,5.91,4.89,12.48,1.69,19-2.84,5.79-7.91,8.57-14.38,8.73-1.08,0-2.16,0-3.25,0Z"/><path class="cls-1" d="M471.61,234.11c-12.41,0-24.82,0-37.23,0a16.11,16.11,0,0,1-16.06-13.94c-1.08-9.52,3.6-17.13,12-19.29a20,20,0,0,1,4.94-.56q36.48,0,73,0c8.42,0,15.07,5.21,16.61,12.76,1.76,8.63-1.93,16.58-9.43,19.67a19.55,19.55,0,0,1-7,1.33C496.1,234.18,483.85,234.11,471.61,234.11Z"/><path class="cls-1" d="M60.61,83.73a16.29,16.29,0,0,1,32.57.7,16.29,16.29,0,1,1-32.57-.7Z"/><path class="cls-1" d="M609,299.77c-4.41,0-8.82.05-13.24,0-9.4-.14-16.14-7.09-16.21-16.65-.07-9.75,6.53-16.91,16-17.08q13.62-.22,27.23,0c9.57.17,16.07,7.38,16,17.38a16.07,16.07,0,0,1-16.27,16.34C618,299.82,613.46,299.77,609,299.77Z"/></g></g></svg>