<svg xmlns="http://www.w3.org/2000/svg" viewBox="0 0 615.28 297.18"><defs><style>.cls-1{fill:#fff;fill-opacity:0.58;opacity:0.3;}</style></defs><g id="Livello_2" data-name="Livello 2"><g id="Livello_1-2" data-name="Livello 1"><path class="cls-1" d="M191,297.18H364.44c8.71,0,15.12-4.75,17.05-12.54,2.81-11.37-4.92-21.33-16.6-21.35-10.5,0-21,0-31.5,0-7.38,0-14.25-6.09-15.53-13.73s3.2-16.15,10.07-18.49a13.58,13.58,0,0,1,4.2-.34q131.36,0,262.73,0c6.07,0,11.19-1.91,14.68-7,3.91-5.71,4.16-11.95,1.14-18s-8.28-8.9-15-8.9c-52.83,0-105.66-.22-158.49.19-9.64.07-16.55-9.31-16.1-17.15s7.28-16.26,16.46-15.76a74.87,74.87,0,0,0,12-.23c8.64-.92,14.58-8.5,14.14-17.63s-7.2-15.89-16-15.93q-27.5-.12-55,0a9.92,9.92,0,0,1-6.81-2.53,16.78,16.78,0,0,1-.34-25.66,7.76,7.76,0,0,1,4.64-1.75q64.74-.14,129.49,0A18.31,18.31,0,0,0,530,97.52c5.76-3.83,8.45-10.83,6.94-18a16.05,16.05,0,0,0-13.55-12.91A29.08,29.08,0,0,0,519,66.3q-169.49,0-339,0c-9.22,0-15.63,4.34-17.76,12-3.24,11.64,4.53,22,16.58,22q73.86,0,147.74,0a7.32,7.32,0,0,1,5.51,2.28,16.78,16.78,0,0,1-1.91,25.91,10.41,10.41,0,0,1-5.49,1.76q-86.62.13-173.24,0c-5.23,0-9.77,1.15-13.54,5.07a17.87,17.87,0,0,0-3.43,18.59,15.83,15.83,0,0,0,14.75,10.06l132.44.18c8.26,0,14.45,4.8,16.38,12.6a16.88,16.88,0,0,1-9.82,19.49,9.93,9.93,0,0,1-3.65.55q-57.74,0-115.49,0c-6.85,0-12.19,2.93-15.12,9.15s-2.55,12.68,1.73,18.41c3.2,4.28,7.71,6.24,13,6.33,4.58.07,9.17,0,13.75,0a14.89,14.89,0,0,1,14.87,12.41c2.43,12.16-8.09,20.37-16.72,20.32-54.49-.3-109-.15-163.49-.14-8.37,0-15,5.25-16.65,13-2.35,11.44,5.32,20.88,17,20.88Q104.22,297.2,191,297.18Z"/><path class="cls-1" d="M339.76,33.85q51.62,0,103.23,0c8.44,0,14.95-5.15,16.6-13C461.93,9.63,454.38,0,443,0Q339.89,0,236.79,0c-9.28,0-15.89,6.17-16.73,15.18s4.48,16.57,13,18.32a23.18,23.18,0,0,0,4.72.3Q288.77,33.86,339.76,33.85Z"/><path class="cls-1" d="M91,163.39c4.41,0,8.83.06,13.24,0,9.4-.14,16.15-7.1,16.21-16.65.07-9.75-6.53-16.92-16-17.08q-13.61-.24-27.23,0c-9.57.18-16.06,7.39-16,17.38A16.09,16.09,0,0,0,77.5,163.38C82,163.44,86.49,163.39,91,163.39Z"/><path class="cls-1" d="M586,98.2c4.25,0,8.5.06,12.74,0,9.53-.17,16.51-7.42,16.53-17.06A16.47,16.47,0,0,0,598.55,64.3q-12.48-.08-25,0a16.49,16.49,0,0,0-16.78,17,16.56,16.56,0,0,0,16.73,16.86C577.68,98.24,581.85,98.2,586,98.2Z"/><path class="cls-1" d="M179.93.72A16.14,16.14,0,0,0,163.58,17,16.29,16.29,0,1,0,179.93.72Z"/></g></g></svg>