<?xml version="1.0" encoding="utf-8"?>
<!-- Generator: Adobe Illustrator 24.1.0, SVG Export Plug-In . SVG Version: 6.00 Build 0)  -->
<svg version="1.1" id="Livello_1" xmlns="http://www.w3.org/2000/svg" xmlns:xlink="http://www.w3.org/1999/xlink" x="0px" y="0px"
	 viewBox="0 0 787 787" style="enable-background:new 0 0 787 787;" xml:space="preserve">
<style type="text/css">
	.st0{fill:none;stroke:#FF4D5B;stroke-width:27;}
	.st1{fill:none;stroke:#FF4D5B;stroke-width:27;stroke-opacity:0.7;}
	.st2{fill:none;stroke:#FF4D5B;stroke-width:27;stroke-linecap:round;stroke-linejoin:round;}
</style>
<path class="st0" d="M393.5,13.5L393.5,13.5c209.9,0,380,170.1,380,380l0,0c0,209.9-170.1,380-380,380l0,0
	c-209.9,0-380-170.1-380-380l0,0C13.5,183.6,183.6,13.5,393.5,13.5z"/>
<line class="st1" x1="175" y1="516.5" x2="617" y2="517.5"/>
<line class="st1" x1="171" y1="272.5" x2="613" y2="273.5"/>
<line class="st2" x1="617.5" y1="515.9" x2="617.5" y2="272.5"/>
<line class="st2" x1="172.5" y1="515.9" x2="172.5" y2="272.5"/>
<line class="st2" x1="173.8" y1="273.9" x2="390.7" y2="425.2"/>
<line class="st2" x1="395.4" y1="426" x2="612.3" y2="274.6"/>
</svg>
