<?xml version="1.0" encoding="utf-8"?>
<!-- Generator: Adobe Illustrator 24.1.0, SVG Export Plug-In . SVG Version: 6.00 Build 0)  -->
<svg version="1.1" id="Livello_1" xmlns="http://www.w3.org/2000/svg" xmlns:xlink="http://www.w3.org/1999/xlink" x="0px" y="0px"
	 viewBox="0 0 787 787" style="enable-background:new 0 0 787 787;" xml:space="preserve">
<style type="text/css">
	.st0{fill:#FFFFFF;stroke:#FFFFFF;stroke-miterlimit:10;}
	.st1{fill:none;stroke:#FFFFFF;stroke-width:27;}
</style>
<path class="st0" d="M240,344.3h80.7c-1.5-50.7-0.5-111.3,41.8-140.3c41.8-32,129.5-24.6,170-17.4v73.9
	c-28.1-4.9-63.2-10.1-88.3,4.1c-21.7,10.1-13.8,59-15.2,79.7h92.1v70.6H429v358.7H320.7V414.8H240V344.3z"/>
<path class="st1" d="M150,13.5h487c75.4,0,136.5,61.1,136.5,136.5v487c0,75.4-61.1,136.5-136.5,136.5H150
	c-75.4,0-136.5-61.1-136.5-136.5V150C13.5,74.6,74.6,13.5,150,13.5z"/>
</svg>
