<svg xmlns="http://www.w3.org/2000/svg" viewBox="0 0 760 760"><defs><style>.cls-1{fill:#fff;}.cls-2{fill:none;}</style></defs><g id="Livello_2" data-name="Livello 2"><g id="Livello_1-2" data-name="Livello 1"><path class="cls-1" d="M403.82,0c13.89,1.94,27.85,3.48,41.66,5.89,80.95,14.14,150.06,51,207.27,109.79,55.56,57.14,90.35,125.3,102.31,204,16.54,108.78-8.36,207.9-76.45,294.69C615.34,695,531.88,742.45,430.34,756.48c-151.89,21-302.15-53.26-378.94-186.07C14.17,506-4.29,436.39.84,362.43c10.55-152,85.84-261.78,222.88-328.49C263.85,14.41,306.87,4.43,351.4,1.19A29.73,29.73,0,0,0,356.33,0ZM356,404.27H215.06A479.79,479.79,0,0,0,233.6,521.85H356Zm48.34-166.59V355.73H545.1c-1.72-40.45-7.14-79.73-18.8-118Zm0,166.33V521.93h121.7C537,487.09,546.86,422.15,544,404ZM356,237.91H234.09c-11.64,38.59-17.36,77.67-19,117.9H356Zm-173.88-.38c1.12.41.67.1.21.1-32.62-.07-65.24-.19-97.85,0-2,0-5.11,2.14-5.75,4C71.1,263.45,63,285.19,56.82,307.45,52.5,323,50.88,339.23,48,355.65H165.35C171,315.88,176.52,276.88,182.09,237.53ZM594.81,355.75h116.1c0-1.43.08-2.42,0-3.38a334.82,334.82,0,0,0-29.61-111c-.94-2-4.85-3.73-7.39-3.75-28.66-.25-57.33-.13-86-.12H578C583.62,277.14,589.17,316.12,594.81,355.75ZM49.21,404.12c0,1.58-.08,2.57,0,3.54C52.85,446.32,62.47,483.41,79,518.59c.93,2,4.9,3.6,7.47,3.62,30.64.27,61.28.21,91.92.19a26.84,26.84,0,0,0,3.71-.31c-5.6-39.41-11.14-78.39-16.76-118Zm661.93,0H594.85C589.2,443.85,583.63,483,578,522.35c31.77,0,64.85.06,97.94-.16a7.19,7.19,0,0,0,5.27-3.64c4.5-10.4,8.9-20.88,12.67-31.56C703.31,460.34,708.71,432.81,711.14,404.16ZM508.83,570.31H404.24V707.22C451.43,670.2,484.76,624.36,508.83,570.31Zm-153-380.59V52.79c-47.25,36.93-80.42,83-104.57,136.93ZM251.44,570.17C275.75,624.41,308.88,670.31,355.87,707V570.17Zm152.7-380.65h104.5c-24.26-53.84-57.27-99.86-104.5-136.72ZM487.69,65.85a33.74,33.74,0,0,0,2,3.71,421.39,421.39,0,0,1,68.82,116.19c.77,1.95,4.18,4,6.41,4.05,14.33.37,28.68.19,43,.19h44.26C610.1,131,556.08,90.49,487.69,65.85Zm-215-.07C204,90.53,150,131,107.94,189.93h8.68c25.23,0,50.46-.18,75.68.21,5.87.1,8.67-1.6,10.76-7.1a375.62,375.62,0,0,1,40.38-77.33C252.29,92.66,262.05,80.23,272.67,65.78ZM108,570.15c42.3,58.63,96.07,99.53,163.47,122.47-30.62-36.94-53.92-78-71.37-122.47ZM652.28,570c-28.68,0-55.81.26-82.94-.17-6.91-.11-10.18,1.89-12.82,8.46-14.87,37.11-34.26,71.69-59.53,102.81q-2.34,2.88-4.56,5.85c-1.31,1.77-2.54,3.61-4.94,7C556.21,669.38,610,628.75,652.28,570Z"/><path class="cls-2" d="M356,404.27V521.85H233.6a479.79,479.79,0,0,1-18.54-117.58Z"/><path class="cls-2" d="M404.32,237.68h122C538,276,543.38,315.28,545.1,355.73H404.32Z"/><path class="cls-2" d="M404.35,404H544c2.84,18.14-7.07,83.08-18,117.92H404.35Z"/><path class="cls-2" d="M356,237.91v117.9H215.14c1.59-40.23,7.31-79.31,19-117.9Z"/><path class="cls-2" d="M182.09,237.53c-5.57,39.35-11.1,78.35-16.74,118.12H48c2.92-16.42,4.54-32.69,8.86-48.2,6.2-22.26,14.28-44,21.88-65.84.64-1.83,3.77-4,5.75-4,32.61-.2,65.23-.08,97.85,0C182.76,237.63,183.21,237.94,182.09,237.53Z"/><path class="cls-2" d="M594.81,355.75c-5.64-39.63-11.19-78.61-16.82-118.24h9.92c28.66,0,57.33-.13,86,.12,2.54,0,6.45,1.74,7.39,3.75a334.82,334.82,0,0,1,29.61,111c.09,1,0,1.95,0,3.38Z"/><path class="cls-2" d="M49.21,404.12h116.1c5.62,39.58,11.16,78.56,16.76,118a26.84,26.84,0,0,1-3.71.31c-30.64,0-61.28.08-91.92-.19-2.57,0-6.54-1.63-7.47-3.62-16.5-35.18-26.12-72.27-29.75-110.93C49.13,406.69,49.21,405.7,49.21,404.12Z"/><path class="cls-2" d="M711.14,404.16c-2.43,28.65-7.83,56.18-17.23,82.83-3.77,10.68-8.17,21.16-12.67,31.56a7.19,7.19,0,0,1-5.27,3.64c-33.09.22-66.17.16-97.94.16,5.6-39.36,11.17-78.5,16.82-118.19Z"/><path class="cls-2" d="M508.83,570.31c-24.07,54.05-57.4,99.89-104.59,136.91V570.31Z"/><path class="cls-2" d="M355.82,189.72H251.25c24.15-54,57.32-100,104.57-136.93Z"/><path class="cls-2" d="M251.44,570.17H355.87V707C308.88,670.31,275.75,624.41,251.44,570.17Z"/><path class="cls-2" d="M404.14,189.52V52.8c47.23,36.86,80.24,82.88,104.5,136.72Z"/><path class="cls-2" d="M487.69,65.85C556.08,90.49,610.1,131,652.24,190H608c-14.34,0-28.69.18-43-.19-2.23-.06-5.64-2.1-6.41-4.05A421.39,421.39,0,0,0,489.73,69.56,33.74,33.74,0,0,1,487.69,65.85Z"/><path class="cls-2" d="M272.67,65.78c-10.62,14.45-20.38,26.88-29.23,39.94a375.62,375.62,0,0,0-40.38,77.33c-2.09,5.5-4.89,7.2-10.76,7.1-25.22-.39-50.45-.2-75.68-.21h-8.68C150,131,204,90.53,272.67,65.78Z"/><path class="cls-2" d="M108,570.15h92.1c17.45,44.49,40.75,85.53,71.37,122.47C204.06,669.68,150.29,628.78,108,570.15Z"/><path class="cls-2" d="M652.28,570C610,628.75,556.21,669.38,487.49,694c2.4-3.43,3.63-5.27,4.94-7q2.22-3,4.56-5.85c25.27-31.12,44.66-65.7,59.53-102.81,2.64-6.57,5.91-8.57,12.82-8.46C596.47,570.22,623.6,570,652.28,570Z"/></g></g></svg>