<?xml version="1.0" encoding="utf-8"?>
<!-- Generator: Adobe Illustrator 24.1.0, SVG Export Plug-In . SVG Version: 6.00 Build 0)  -->
<svg version="1.1" id="Livello_1" xmlns="http://www.w3.org/2000/svg" xmlns:xlink="http://www.w3.org/1999/xlink" x="0px" y="0px"
	 viewBox="0 0 794.1 763.1" style="enable-background:new 0 0 794.1 763.1;" xml:space="preserve">
<style type="text/css">
	.st0{fill-rule:evenodd;clip-rule:evenodd;fill:#FF4D5B;stroke:#FF4D5B;stroke-width:8;stroke-miterlimit:10;}
	.st1{fill:none;stroke:#FF4D5B;stroke-width:27;stroke-miterlimit:10;}
</style>
<path class="st0" d="M298.3,369.3c30,50.8,78.1,90.8,132.7,115.3l38.4-44.2c5.2-6,12.6-8.4,18.5-5.1c21.2,6.1,44,8.3,68.4,6.5
	c11.3-0.8,19.3,6.2,20.1,17.4l4.5,63.9c0.8,11.3-6.2,19.3-17.4,20.1c-176.6,12.3-329.3-120.5-341.7-297
	c-0.8-11.3,6.2-19.3,17.4-20.1l65.8-4.6c11.3-0.8,19.3,6.2,20.1,17.4c1.7,23,7.1,45.6,16,66.8c2.3,5.5,0.9,13.1-2.4,19L298.3,369.3z
	"/>
<path class="st1" d="M250.1,701.3c-2.7-1.4-6-1.7-8.9-0.8c-54.9,16.1-97.8,26.7-131,32.8c-33.3,6.2-56,7.7-70.8,6.2
	c-15.1-1.6-18.6-5.9-19.5-7.8c-1.3-2.8-1.6-8.5,2.9-19.8c4.2-10.6,11.6-23.2,20.5-37c3.4-5.4,7.3-11.1,11.1-17
	c5.6-8.5,11.4-17.3,16.6-25.6c8.8-14.2,17-28.9,21.7-42.5c4.6-13.4,6.9-28.5-0.2-41.6C64,495.4,49.3,436.6,49.4,377
	c0-199.9,161.8-362,361.2-362S772,177.1,772,377S610.2,738.9,410.7,738.9C355,739,300,726.1,250.1,701.3z"/>
</svg>
